<?xml version="1.0" encoding="UTF-8"?>
<svg viewBox="0 0 390 400" xmlns="http://www.w3.org/2000/svg" style="max-width:400px">
  <rect x="0" y="0" width="360" height="360" fill="#b58863"/>
  <rect x="0" y="0" width="45" height="45" fill="#f0d9b5"/><rect x="90" y="0" width="45" height="45" fill="#f0d9b5"/><rect x="180" y="0" width="45" height="45" fill="#f0d9b5"/><rect x="270" y="0" width="45" height="45" fill="#f0d9b5"/>
  <rect x="45" y="45" width="45" height="45" fill="#f0d9b5"/><rect x="135" y="45" width="45" height="45" fill="#f0d9b5"/><rect x="225" y="45" width="45" height="45" fill="#f0d9b5"/><rect x="315" y="45" width="45" height="45" fill="#f0d9b5"/>
  <rect x="0" y="90" width="45" height="45" fill="#f0d9b5"/><rect x="90" y="90" width="45" height="45" fill="#f0d9b5"/><rect x="180" y="90" width="45" height="45" fill="#f0d9b5"/><rect x="270" y="90" width="45" height="45" fill="#f0d9b5"/>
  <rect x="45" y="135" width="45" height="45" fill="#f0d9b5"/><rect x="135" y="135" width="45" height="45" fill="#f0d9b5"/><rect x="225" y="135" width="45" height="45" fill="#f0d9b5"/><rect x="315" y="135" width="45" height="45" fill="#f0d9b5"/>
  <rect x="0" y="180" width="45" height="45" fill="#f0d9b5"/><rect x="90" y="180" width="45" height="45" fill="#f0d9b5"/><rect x="180" y="180" width="45" height="45" fill="#f0d9b5"/><rect x="270" y="180" width="45" height="45" fill="#f0d9b5"/>
  <rect x="45" y="225" width="45" height="45" fill="#f0d9b5"/><rect x="135" y="225" width="45" height="45" fill="#f0d9b5"/><rect x="225" y="225" width="45" height="45" fill="#f0d9b5"/><rect x="315" y="225" width="45" height="45" fill="#f0d9b5"/>
  <rect x="0" y="270" width="45" height="45" fill="#f0d9b5"/><rect x="90" y="270" width="45" height="45" fill="#f0d9b5"/><rect x="180" y="270" width="45" height="45" fill="#f0d9b5"/><rect x="270" y="270" width="45" height="45" fill="#f0d9b5"/>
  <rect x="45" y="315" width="45" height="45" fill="#f0d9b5"/><rect x="135" y="315" width="45" height="45" fill="#f0d9b5"/><rect x="225" y="315" width="45" height="45" fill="#f0d9b5"/><rect x="315" y="315" width="45" height="45" fill="#f0d9b5"/>
  <!-- Pieces -->
  <text x="22" y="33" text-anchor="middle" font-size="32" font-family="serif">♜</text>
  <text x="67" y="33" text-anchor="middle" font-size="32" font-family="serif">♞</text>
  <text x="112" y="33" text-anchor="middle" font-size="32" font-family="serif">♝</text>
  <text x="157" y="33" text-anchor="middle" font-size="32" font-family="serif">♛</text>
  <text x="247" y="33" text-anchor="middle" font-size="32" font-family="serif">♜</text>
  <text x="292" y="33" text-anchor="middle" font-size="32" font-family="serif">♚</text>
  <text x="22" y="78" text-anchor="middle" font-size="32" font-family="serif">♟</text>
  <text x="67" y="78" text-anchor="middle" font-size="32" font-family="serif">♟</text>
  <text x="202" y="78" text-anchor="middle" font-size="32" font-family="serif">♟</text>
  <text x="247" y="78" text-anchor="middle" font-size="32" font-family="serif">♟</text>
  <text x="292" y="78" text-anchor="middle" font-size="32" font-family="serif">♝</text>
  <text x="337" y="78" text-anchor="middle" font-size="32" font-family="serif">♟</text>
  <text x="157" y="123" text-anchor="middle" font-size="32" font-family="serif">♟</text>
  <text x="292" y="123" text-anchor="middle" font-size="32" font-family="serif">♟</text>
  <text x="112" y="168" text-anchor="middle" font-size="32" font-family="serif">♟</text>
  <text x="157" y="213" text-anchor="middle" font-size="32" font-family="serif">♙</text>
  <text x="202" y="213" text-anchor="middle" font-size="32" font-family="serif">♙</text>
  <text x="112" y="258" text-anchor="middle" font-size="32" font-family="serif">♘</text>
  <text x="247" y="258" text-anchor="middle" font-size="32" font-family="serif">♘</text>
  <text x="22" y="303" text-anchor="middle" font-size="32" font-family="serif">♙</text>
  <text x="67" y="303" text-anchor="middle" font-size="32" font-family="serif">♙</text>
  <text x="247" y="303" text-anchor="middle" font-size="32" font-family="serif">♙</text>
  <text x="292" y="303" text-anchor="middle" font-size="32" font-family="serif">♙</text>
  <text x="337" y="303" text-anchor="middle" font-size="32" font-family="serif">♙</text>
  <text x="22" y="348" text-anchor="middle" font-size="32" font-family="serif">♖</text>
  <text x="112" y="348" text-anchor="middle" font-size="32" font-family="serif">♗</text>
  <text x="157" y="348" text-anchor="middle" font-size="32" font-family="serif">♕</text>
  <text x="202" y="348" text-anchor="middle" font-size="32" font-family="serif">♔</text>
  <text x="247" y="348" text-anchor="middle" font-size="32" font-family="serif">♗</text>
  <text x="337" y="348" text-anchor="middle" font-size="32" font-family="serif">♖</text>
  <!-- Coordinates -->
  <text x="22" y="375" font-size="11" fill="#666" text-anchor="middle" font-family="sans-serif">a</text>
  <text x="67" y="375" font-size="11" fill="#666" text-anchor="middle" font-family="sans-serif">b</text>
  <text x="112" y="375" font-size="11" fill="#666" text-anchor="middle" font-family="sans-serif">c</text>
  <text x="157" y="375" font-size="11" fill="#666" text-anchor="middle" font-family="sans-serif">d</text>
  <text x="202" y="375" font-size="11" fill="#666" text-anchor="middle" font-family="sans-serif">e</text>
  <text x="247" y="375" font-size="11" fill="#666" text-anchor="middle" font-family="sans-serif">f</text>
  <text x="292" y="375" font-size="11" fill="#666" text-anchor="middle" font-family="sans-serif">g</text>
  <text x="337" y="375" font-size="11" fill="#666" text-anchor="middle" font-family="sans-serif">h</text>
  <text x="370" y="33" font-size="11" fill="#666" font-family="sans-serif">8</text>
  <text x="370" y="78" font-size="11" fill="#666" font-family="sans-serif">7</text>
  <text x="370" y="123" font-size="11" fill="#666" font-family="sans-serif">6</text>
  <text x="370" y="168" font-size="11" fill="#666" font-family="sans-serif">5</text>
  <text x="370" y="213" font-size="11" fill="#666" font-family="sans-serif">4</text>
  <text x="370" y="258" font-size="11" fill="#666" font-family="sans-serif">3</text>
  <text x="370" y="303" font-size="11" fill="#666" font-family="sans-serif">2</text>
  <text x="370" y="348" font-size="11" fill="#666" font-family="sans-serif">1</text>
</svg>